<svg width="191" height="79" viewBox="0 0 191 79" fill="none" xmlns="http://www.w3.org/2000/svg">
<path d="M72.9648 37.84C73.1368 38.012 73.0508 37.84 72.9648 37.84V37.84Z" fill="white"/>
<path d="M72.5864 37.41C72.466 37.3068 72.2252 37.1004 72.5864 37.41V37.41Z" fill="white"/>
<path d="M79.8276 28.208C79.5719 26.8918 78.9102 25.6888 77.9356 24.768C76.6249 23.3528 75.1395 22.1102 73.5152 21.07C72.3628 20.3132 71.1588 19.6252 69.9548 18.9888L74.1516 17.63L79.5696 15.91H79.7416C79.7416 15.91 79.7416 15.91 79.8276 15.91C79.9136 15.91 79.8276 15.7896 79.8276 15.6692V15.48C79.6554 15.151 79.4351 14.8496 79.174 14.5856C78.7899 14.119 78.3376 13.7131 77.8324 13.3816C77.7188 13.3 77.5902 13.2416 77.454 13.2096V13.2096L73.6528 11.8852L64.3992 8.7376L53.4084 4.902L43.8968 1.5996L40.7836 0.516C40.3027 0.310843 39.8085 0.138449 39.3044 0C39.041 0.0180425 38.7837 0.0881982 38.5476 0.2064L36.174 1.032L27.574 4.0248L16.6004 7.8432L6.69319 11.2832L1.30959 13.158L0.999992 13.244C0.724792 13.3472 1.82559 14.5856 1.85999 14.6028C2.27638 15.1407 2.82023 15.5663 3.44239 15.8412L7.24359 17.0624L10.374 18.06C9.59999 18.4384 8.84319 18.834 8.06919 19.2468C6.59132 20.0171 5.17653 20.9028 3.83799 21.8956C2.8305 22.6192 1.99144 23.5521 1.37839 24.6304C1.16217 25.0452 1.04446 25.5043 1.03439 25.972V25.972V30.788L3.51119 31.5964C1.93918 33.6299 1.0592 36.1132 0.999992 38.6828C1.04506 38.8896 1.14622 39.0801 1.29239 39.2332C1.42999 39.4224 1.58479 39.6116 1.72239 39.7664L1.85999 39.904C2.18425 40.2887 2.5674 40.6196 2.99519 40.8844C1.81348 43.572 1.16507 46.4635 1.08599 49.3984C1.08599 50.0348 1.08599 50.6884 1.08599 51.342C1.13106 51.5488 1.23222 51.7393 1.37839 51.8924C1.51599 52.0816 1.67079 52.2708 1.80839 52.4256L1.94599 52.5632C1.37072 55.5055 1.05418 58.4925 0.999992 61.49C0.999992 62.3328 0.999992 63.21 0.999992 64.0012C1.04506 64.208 1.14622 64.3985 1.29239 64.5516C1.42999 64.7408 1.58479 64.93 1.72239 65.0848L1.85999 65.2224C2.2704 65.7352 2.80254 66.1373 3.40799 66.392L7.20919 67.6132L16.48 70.6576L27.4708 74.2008L36.9824 77.2624L40.0956 78.2772C40.5747 78.4733 41.0695 78.6287 41.5748 78.7416C41.8382 78.7373 42.0971 78.6726 42.3316 78.5524L44.7052 77.7956L53.3052 75.0092L64.2788 71.466L74.1344 68.284L79.5524 66.564H79.8104V66.4436C79.9197 62.3488 79.5444 58.2555 78.6924 54.2488L79.5352 53.9736H79.7932V53.8532C79.8911 49.7909 78.9497 45.7709 77.0584 42.1744L79.5352 41.28H79.7932V41.1596C79.6504 37.7963 78.2797 34.6019 75.9404 32.1812L79.8104 30.9256L79.8276 28.208ZM69.0088 34.7612C69.6108 35.1396 70.2128 35.5352 70.7288 35.948H70.8148L70.9696 36.0684L71.3652 36.3608L71.8124 36.722L71.9672 36.8424H71.864L72.0016 36.9456L72.38 37.2896L72.5692 37.4616L72.8616 37.7712C72.8556 37.7995 72.8556 37.8289 72.8616 37.8572V37.8572L72.9992 38.012C73.1024 38.1324 73.2056 38.27 73.3088 38.3732C72.9304 37.9776 73.3088 38.4592 73.4636 38.5796C73.5475 38.6695 73.6224 38.7674 73.6872 38.872V38.9752L73.8936 39.2676L74.0828 39.5944L69.8 40.9876C67.3894 39.3005 64.8537 37.7997 62.2148 36.4984L68.4756 34.4L69.0088 34.7612ZM72.6724 44.4964C72.7928 44.6168 73.154 45.1156 72.7756 44.5996C72.9476 44.8404 73.1368 45.0468 73.3088 45.2704L73.412 45.408C73.412 45.5628 73.6012 45.7004 73.7044 45.8552L73.9452 46.2336C73.9452 46.2336 74.1 46.526 73.9452 46.2336L74.0656 46.4228C74.2204 46.698 74.358 46.9732 74.4956 47.2656C75.1241 48.5319 75.6087 49.8646 75.9404 51.2388C75.9404 51.3592 75.9404 51.4796 75.9404 51.6L74.96 51.9096L69.8 53.6296L54.9048 58.48L41.9876 62.6424C41.076 62.9348 40.13 63.1928 39.2356 63.5368H39.0808L38.0144 63.1928L26.8 59.4604L11.4404 54.524L5.19679 52.5116C5.36879 51.9956 5.54079 51.4796 5.74719 50.9636C6.92283 48.0754 8.84632 45.5523 11.32 43.6536L16.48 45.3736L27.4708 48.9168L36.9824 51.9956L40.0956 52.9932C40.5743 53.1949 41.0691 53.356 41.5748 53.4748C41.8174 53.4673 42.0565 53.4148 42.28 53.32L44.6536 52.546L53.2536 49.7596L64.2272 46.2336L71.8124 43.774L71.9844 43.946C72.122 44.0664 72.5864 44.5308 72.0704 43.946L72.638 44.5136L72.466 44.3416L72.6724 44.4964ZM39.2184 63.4164C39.098 63.4164 39.2184 63.4164 39.2184 63.4164V63.4164ZM24.4608 22.5836L27.2988 23.4952C25.7508 24.5616 24.1512 25.5592 22.5172 26.4708C20.8832 27.3824 19.6964 27.95 18.2688 28.6724L14.4676 27.52L15.8952 26.7632C18.6988 25.3184 21.6228 24.0972 24.4952 22.6868L24.4608 22.5836ZM60.5808 37.152L64.7604 39.3708C65.414 39.6976 66.0676 40.0416 66.704 40.4028L67.5984 40.9016L68.0284 41.1424L68.2348 41.2628H68.3208L67.5296 41.5208L52.8924 46.44L41.1104 50.224L39.6828 50.6884L39.2528 50.8432H39.1496C39.0374 50.801 38.9225 50.7665 38.8056 50.74L37.4468 50.2928L25.9056 46.5776L13.04 42.3808C15.8264 40.5404 18.8708 39.0784 21.8292 37.5132L40.388 43.4988L60.4088 37.0488L60.5808 37.152ZM31.53 24.8712L33.0436 25.3528C30.8321 27.4936 28.425 29.4226 25.854 31.1148L22.93 30.1688L23.9276 29.6528C26.5716 28.2408 29.1121 26.6429 31.53 24.8712V24.8712ZM43.3292 17.9052C44.9804 19.522 46.7004 21.0528 48.4892 22.4976L44.4128 23.822L44.1548 23.478L43.742 22.9792L43.57 22.7212C43.3464 22.4116 43.1228 22.1192 42.9164 21.7924L42.4348 21.0356C41.8737 19.8363 41.597 18.5237 41.6264 17.2V16.2024C42.28 16.7872 42.7444 17.3548 43.3292 17.9052ZM40.3708 22.2396C40.646 21.8268 40.9212 21.3968 41.162 20.9668C41.9188 22.0332 42.7444 23.0824 43.6044 24.08L40.6976 25.0088C40.216 25.1636 39.6828 25.284 39.2012 25.4904C39.0307 25.4127 38.8518 25.3549 38.668 25.3184L38.2036 25.1636C38.9845 24.2337 39.7082 23.2572 40.3708 22.2396ZM36.9308 26.6084L40.044 27.606C40.5227 27.8077 41.0175 27.9688 41.5232 28.0876C41.7856 28.0759 42.0429 28.0115 42.28 27.8984L44.6536 27.1416L46.0468 26.6772C46.8896 27.52 47.7668 28.3972 48.644 29.1024C49.8136 30.1172 51.0348 31.0632 52.2904 31.9748L40.4052 35.8104L30.0852 32.4908C32.5412 30.7625 34.8173 28.7918 36.8792 26.6084H36.9308ZM51.7228 30.4268L51.2584 30.0828L51.0348 29.9108L50.0888 29.1884L49.1944 28.466L48.9192 28.2252L48.5752 27.95L47.784 27.2448L47.44 26.918L47.2852 26.7804L47.0272 26.5224L51.7916 24.9744C52.2216 25.3012 52.6688 25.6108 53.116 25.9204C55.1834 27.3289 57.3313 28.6153 59.5488 29.7732L53.6148 31.6996C52.9383 31.2639 52.2904 30.8396 51.6712 30.4268H51.7228ZM49.4524 22.188L48.7128 21.6376L47.3024 20.5024L46.9928 20.2444L46.7692 20.0552L46.236 19.5908C45.8404 19.264 45.462 18.92 45.0836 18.576L44.5676 18.0944L44.3268 17.8708C43.7592 17.3204 43.1916 16.77 42.6068 16.1508C42.4887 16.0705 42.3792 15.9783 42.28 15.8756V15.7552L41.764 15.1876V11.4208C46.0271 14.6555 50.4533 17.6695 55.0252 20.4508L53.4944 20.9324L49.4524 22.188ZM35.4 22.8244C35.0732 23.2028 34.7464 23.5812 34.4024 23.9424L33.25 23.564C34.2304 22.79 35.1764 21.9988 36.1052 21.1904C36.7416 20.6228 37.378 20.0552 37.98 19.4704C37.1962 20.645 36.3343 21.7655 35.4 22.8244V22.8244ZM61.2 29.1196L57.9148 27.52C56.1948 26.6084 54.4748 25.6108 52.7548 24.5272L53.2708 24.3724L58.7404 22.6524C60.254 23.4092 61.802 24.1144 63.35 24.8368C64.898 25.5592 66.188 26.1784 67.564 26.9008L67.822 27.0212L61.2 29.1196ZM56.4356 19.952C53.1859 18.2138 50.0492 16.2721 47.0444 14.1384C45.3244 12.9516 43.6044 11.7304 41.8844 10.492L41.6608 10.32V6.9832C45.9092 9.1332 50.1576 11.3004 54.3716 13.5192C55.2316 13.9664 56.0916 14.448 56.9344 14.878C57.7772 15.308 58.6544 15.6176 59.4112 15.9616L63.5564 17.6816L56.4356 19.952ZM39.1152 8.7032C37.12 10.148 35.228 11.5584 33.2672 12.9344C29.8792 15.3845 26.3404 17.6192 22.672 19.6252L22.0356 19.952L17.6324 18.5244L18.3376 18.232C20.9176 17.1312 23.5836 16.1852 26.112 14.964C27.1784 14.448 28.2104 13.846 29.2596 13.244L34.1788 10.6984L38.84 8.342L39.0808 8.2388L39.1152 8.7032ZM34.6776 16.2884C36.0708 15.3252 37.464 14.3448 38.84 13.3472C37.5303 14.8486 36.1348 16.2728 34.6604 17.6128C32.8899 19.2516 31.0294 20.7906 29.0876 22.2224L27.6256 21.758L26.6452 21.4312C29.4144 19.8832 32.0632 18.0772 34.6776 16.2884ZM17.2024 36.0168C14.8859 37.1804 12.6298 38.4606 10.4428 39.8524C9.87519 40.2136 9.32479 40.6092 8.72279 41.0048L7.32959 40.5576C9.11815 38.3094 11.3044 36.4088 13.7796 34.9504L17.2024 36.0168ZM7.24359 42.3636C6.43868 43.1369 5.7074 43.9833 5.05919 44.892C5.42215 43.9194 5.87113 42.9812 6.40079 42.0884L7.24359 42.3636ZM71.4168 21.242C72.1048 21.586 72.7756 21.9472 73.4292 22.3256L73.67 22.4804H73.8248L74.1516 22.6868L75.0804 23.2716L75.8544 23.8048H75.9576C76.0796 23.8869 76.1947 23.979 76.3016 24.08L69.3012 26.488C68.2004 25.7828 67.0652 25.112 65.8612 24.51C64.1412 23.5984 62.4212 22.79 60.7012 21.9644L64.2788 20.812L68.08 19.608C69.1464 20.124 70.2988 20.64 71.4168 21.242ZM44.5848 3.6464L53.1848 6.6392L64.124 10.4404L73.9968 13.8804L74.5988 14.104L73.412 14.4824L65.6892 16.9592L63.4876 15.996C60.77 14.8264 57.9492 13.8116 55.266 12.556C54.234 12.0916 53.2708 11.5068 52.2732 10.9908C50.6564 10.1308 49.0224 9.2708 47.3884 8.4452L41.6264 5.504V2.5972C41.7925 2.68927 41.9726 2.7532 42.1596 2.7864L44.5848 3.6464ZM6.74479 15.0328L6.24599 14.878L7.32959 14.4996L16.48 11.3348L27.488 7.5164L36.9996 4.214L39.1152 3.44V4.3344C38.8228 4.4548 38.5476 4.6268 38.2724 4.7644L34.4024 6.7596C31.2204 8.3764 28.0212 9.9932 24.8736 11.696C22.7003 12.794 20.473 13.7814 18.2 14.6544C16.48 15.48 14.5708 16.1508 12.782 16.9592L6.74479 15.0328ZM8.46479 23.0652C10.6269 21.7798 12.8673 20.6309 15.1728 19.6252L16.4112 20.038L19.748 21.1044C16.3911 22.5606 13.118 24.2029 9.94399 26.0236L6.15999 24.7508C6.90082 24.1446 7.67611 23.5818 8.48199 23.0652H8.46479ZM9.59999 33.5572C7.80428 34.7915 6.21391 36.3006 4.88719 38.0292C4.54319 38.4936 4.25079 38.958 3.95839 39.4224H3.83799C4.28306 36.9211 5.48357 34.6161 7.27799 32.8176L9.59999 33.5572ZM77.196 62.952V63.3992C77.196 63.3992 77.196 63.7776 77.196 63.8464C77.196 63.9152 77.196 63.8464 77.196 63.8464H77.11C76.9893 63.9019 76.8622 63.9424 76.7316 63.9668L75.1664 64.4828L61.6816 68.8344L45.7028 73.9944L40.5428 75.7144L39.3044 76.1272H39.2184H39.098C38.7368 75.9724 38.3412 75.8864 37.98 75.766L35.83 75.078L29.4144 73.014L13.04 67.6648L3.64879 64.672C3.61208 61.1563 3.97562 57.6479 4.73239 54.2144L7.29519 55.04L16.48 57.9812L27.4708 61.5244L36.9824 64.6032L40.0956 65.6008C40.5743 65.8025 41.0691 65.9636 41.5748 66.0824C41.8372 66.0707 42.0945 66.0063 42.3316 65.8932L44.7052 65.1364L53.3052 62.35L64.2788 58.8068L74.1344 55.6248L76.68 54.8164C77.0327 57.5138 77.2051 60.2317 77.196 62.952V62.952ZM76.7144 45.752C76.8934 46.7075 77.0197 47.6722 77.0928 48.6416C77.0928 48.934 77.0928 49.2436 77.0928 49.5532C75.9833 47.2346 74.4623 45.1366 72.6036 43.3612L74.0656 42.8968L75.7856 42.3636C76.1808 43.4887 76.48 44.6452 76.68 45.8208L76.7144 45.752ZM75.1836 32.3188L75.39 32.594L75.648 32.9896L75.7512 33.1616C75.7538 33.2132 75.7538 33.2648 75.7512 33.3164C75.8544 33.4884 75.9404 33.6604 76.0264 33.8324C76.6468 35.1016 77.0093 36.4813 77.0928 37.8916C77.0928 38.098 77.196 38.4248 77.0928 38.528C76.9902 38.5433 76.8858 38.5433 76.7832 38.528L75.0632 39.0612C73.482 37.1015 71.642 35.3657 69.5936 33.9012L74.9944 32.1812L75.1836 32.3188Z" fill="white"/>
<path d="M104.85 49.0063C103.743 49.0003 102.647 49.2233 101.638 49.66C100.628 50.0967 99.7287 50.737 99 51.5373L99.2659 51.8988C99.9635 51.5935 100.716 51.4202 101.482 51.3884C104.474 51.3884 106.357 53.7279 106.357 57.4925V66H110.989V54.9828C111.04 54.1925 110.916 53.4009 110.627 52.6594C110.338 51.918 109.889 51.2433 109.31 50.6795C108.73 50.1156 108.034 49.6752 107.266 49.3869C106.497 49.0986 105.674 48.9689 104.85 49.0063V49.0063Z" fill="white"/>
<path d="M98 49H94V66H98V49Z" fill="white"/>
<path d="M123.072 63.39C120.612 63.39 119.209 61.2518 119.209 57.7238V49H115.021V59.9261C114.955 60.7083 115.046 61.4964 115.29 62.2388C115.533 62.9811 115.923 63.6611 116.434 64.2343C116.944 64.8074 117.564 65.2608 118.252 65.5649C118.941 65.8689 119.683 66.0166 120.429 65.9985C121.513 65.9757 122.577 65.6944 123.542 65.1759C124.507 64.6573 125.348 63.915 126 63.0051L125.715 62.663C124.91 63.1456 123.999 63.3964 123.072 63.39V63.39Z" fill="white"/>
<path d="M131 49H127V66H131V49Z" fill="white"/>
<path d="M143.129 55.3897C140.699 54.6408 138.604 53.9336 138.604 52.3942C138.596 52.1146 138.654 51.8371 138.771 51.5829V51.3749H139.085C139.366 51.3057 139.655 51.2707 139.944 51.2709C140.76 51.2709 141.566 51.4393 142.313 51.7651C143.06 52.091 143.73 52.5673 144.281 53.1639L144.407 53.3303L147.989 50.834L147.801 50.6468C147.254 50.1015 146.599 49.6741 145.878 49.3913C145.157 49.1085 144.385 48.9765 143.611 49.0034C142.707 48.9874 141.811 49.165 140.983 49.5239C140.155 49.8829 139.415 50.4149 138.813 51.0837L138.583 51.3541H138.373C137.584 51.525 136.87 51.9388 136.332 52.5365C135.794 53.1341 135.46 53.8851 135.377 54.6824C135.377 57.3659 138.331 58.3228 141.18 59.2589C143.276 59.9454 145.371 60.6111 145.538 61.9632C145.573 62.4532 145.432 62.9395 145.14 63.3362L144.973 63.565H144.637C144.31 63.599 143.98 63.599 143.653 63.565C141.75 63.5053 139.943 62.7235 138.604 61.3808V61.2144L135 63.7314L135.189 63.9186C135.835 64.5768 136.607 65.1 137.459 65.4573C138.312 65.8145 139.228 65.9987 140.154 65.9989C141.07 66.016 141.979 65.8393 142.82 65.4807C143.662 65.122 144.417 64.5895 145.035 63.9186L145.287 63.669H145.58C145.936 63.669 149.142 62.6497 148.995 59.7166C148.786 57.1995 145.915 56.2842 143.129 55.3897Z" fill="white"/>
<path d="M160.828 63.3895C158.144 63.3895 156.592 61.2514 156.592 57.7235V49H152.023V59.9258C151.95 60.7098 152.051 61.4997 152.318 62.2436C152.585 62.9874 153.012 63.6685 153.571 64.242C154.131 64.8154 154.809 65.2684 155.563 65.571C156.317 65.8737 157.129 66.0192 157.945 65.998C159.124 65.9751 160.282 65.6936 161.331 65.175C162.38 64.6563 163.293 63.9141 164 63.0046L163.689 62.6625C162.818 63.1425 161.832 63.3932 160.828 63.3895V63.3895Z" fill="white"/>
<path d="M169 49H165V66H169V49Z" fill="white"/>
<path d="M178 41H173V66H178V41Z" fill="white"/>
<path d="M189.089 49H185.078L178 57.4232L185.057 66H191L182.641 56.0852L189.089 49Z" fill="white"/>
<path d="M139 38V21H134.613V34.947H127.798H123.411H97.4927L94 37.4729V38H119.215H123.581H134.613H136.679H139Z" fill="white"/>
<path d="M146.742 29.733C146.742 33.3503 145.329 35.4266 142.887 35.4266C141.97 35.4162 141.072 35.1505 140.283 34.656L140 34.9985C140.644 35.9089 141.474 36.652 142.429 37.1712C143.384 37.6904 144.438 37.9722 145.511 37.9951C146.258 38.0284 147.004 37.8924 147.698 37.5962C148.392 37.3 149.019 36.8504 149.537 36.2773C150.054 35.7042 150.451 35.0207 150.7 34.2725C150.949 33.5242 151.045 32.7283 150.981 31.9376V21H146.742V29.733Z" fill="white"/>
<path d="M153 13.5698C152.846 13.5066 152.681 13.4661 152.512 13.4501H152.349V13.3305C152.442 13.0859 152.489 12.83 152.488 12.5726C152.488 10.5783 151.535 10 150.721 10C149.969 10.0336 149.258 10.305 148.725 10.7616C148.193 11.2183 147.876 11.828 147.837 12.4729C147.837 13.4701 148.605 14.0285 150.395 14.2877H150.698L150.465 14.4473C148.874 15.3271 147.164 16.037 145.372 16.5613L145 16.7009H145.395C145.943 16.8404 146.503 16.9404 147.07 17V17C148.84 16.5378 150.441 15.6931 151.721 14.547C151.849 14.5777 151.973 14.6178 152.093 14.6667V14.6667L152.977 13.6097L153 13.5698ZM151.721 12.8917C151.742 13.0174 151.742 13.145 151.721 13.2707V13.2707C149.395 12.8718 148.86 12.2137 148.86 11.755C148.86 11.2963 149.558 10.8575 150.256 10.8575C150.953 10.8575 151.721 11.755 151.721 12.8917Z" fill="white"/>
<path d="M184 24.9887L180.51 21L177 24.9887L180.51 29L184 24.9887Z" fill="white"/>
<path d="M185 13.6424C184.846 13.5779 184.681 13.5367 184.512 13.5203H184.372V13.3983C184.447 13.1456 184.486 12.8859 184.488 12.625C184.488 10.5901 183.535 10 182.721 10C181.971 10.0347 181.263 10.3123 180.734 10.7787C180.206 11.2451 179.894 11.867 179.86 12.5233C179.86 13.5407 180.628 14.1105 182.419 14.375H182.721L182.465 14.5378C180.874 15.4355 179.164 16.1598 177.372 16.6948L177 16.8372H177.395C177.94 16.9282 178.492 16.9826 179.047 17V17C180.752 16.5553 182.303 15.7438 183.558 14.6395V14.6395L183.907 14.7616L184.791 13.6831L185 13.6424ZM183.767 12.9506C183.788 13.0788 183.788 13.209 183.767 13.3372C181.442 12.9302 180.907 12.2587 180.907 11.7907C180.907 11.3227 181.628 10.875 182.326 10.875C183.023 10.875 183.721 11.7907 183.767 12.9506V12.9506Z" fill="white"/>
<path d="M186.638 21V34.5942H162.021C162.345 33.7477 162.504 32.8465 162.489 31.9396V21H158.106V29.7346C158.106 33.3526 156.638 35.4292 154.064 35.4292C153.091 35.4216 152.136 35.1557 151.298 34.6585L151 35.001C151.683 35.9121 152.562 36.6553 153.572 37.1745C154.582 37.6936 155.696 37.9753 156.83 37.9981C157.812 38.0238 158.782 37.7829 159.64 37.3007C160.497 36.8185 161.209 36.1128 161.702 35.2579L164.574 37.57H191V21H186.638Z" fill="white"/>
<path d="M115.548 24.002C116.864 23.9333 118.175 24.2017 119.357 24.7815C120.538 25.3614 121.55 26.2331 122.296 27.3133C122.87 28.2512 123.215 29.3106 123.301 30.4056C123.387 31.5006 123.212 32.6003 122.79 33.6155V33.8291L123.048 34H123.198C124.571 33.248 125.665 32.0796 126.323 30.6652C126.98 29.2509 127.165 27.6648 126.851 26.1384C126.483 24.5879 125.571 23.2184 124.28 22.275C122.988 21.3317 121.401 20.8761 119.803 20.9898H104.761L112.389 13H108.199L101 21.2035L101.537 24.002H115.548Z" fill="white"/>
</svg>
