<svg width="62" height="62" viewBox="0 0 62 62" fill="none" xmlns="http://www.w3.org/2000/svg">
<path d="M35.1572 9.81341C34.7631 13.1896 32.4611 17.1041 29.154 18.1776C25.6216 19.3237 22.1593 16.5212 22.1954 12.902C22.229 9.52098 24.759 5.2605 28.0088 4.07174C31.6389 2.74366 34.7872 5.36483 35.1708 8.8939C35.2021 8.97789 35.2172 9.09316 35.2086 9.25239C35.2183 9.43262 35.1946 9.62181 35.1572 9.81363V9.81341ZM29.159 8.79876C28.3154 8.46871 27.398 8.39347 26.5122 8.58966C26.1215 8.67584 25.6339 9.05073 25.2728 9.13865C25.2658 9.17671 25.2603 9.20974 25.2522 9.25217C25.6759 11.0323 26.1936 12.4392 28.0037 13.2607C28.9001 13.6673 29.9296 13.783 30.8917 13.5643C31.2975 13.4724 31.6391 13.25 32.0311 13.1395C32.0695 13.1054 32.089 13.0927 32.1225 13.0638C32.1317 13.0122 32.1402 12.9626 32.152 12.9015C32.0521 11.047 30.8811 9.47242 29.1591 8.79832L29.159 8.79876Z" fill="#B49164"/>
<path d="M22.174 25.8984C22.5959 25.7123 21.361 30.0198 19.9306 30.6504C11.3062 34.4531 12.0544 45.2081 18.7981 50.4926C24.6108 55.0475 35.6698 54.7185 38.5769 46.7562C39.0465 45.4701 42.3426 41.8619 41.1657 45.0856C37.1458 56.0956 23.2053 63.8644 14.0118 53.1908C6.24076 44.1687 12.2653 30.2672 22.1738 25.8984H22.174Z" fill="#B49164"/>
<path d="M34.8413 41.0588H28.0336C27.844 41.0986 27.7189 41.0259 27.6585 40.8422C26.4516 35.4114 25.2447 29.9807 24.038 24.5498C23.9647 24.2198 24.0741 23.7856 24.2804 23.3208C24.699 21.923 25.7976 20.0146 26.6563 20.0146H41.1386C42.207 20.0146 40.2497 24.7666 38.8951 24.7666H28.0393C28.2421 25.6798 28.445 26.5927 28.648 27.5063C29.0767 29.4354 29.5054 31.3646 29.9341 33.2937C30.0951 34.0181 30.1473 35.8398 30.6187 36.3746C30.3993 36.1257 31.5347 36.307 32.3569 36.307H45.6641C45.8538 36.2672 45.9789 36.3398 46.0392 36.5236C47.8496 40.7477 49.6597 44.9717 51.4701 49.1954C52.0261 50.4927 48.8448 54.3736 48.4767 53.5144C47.5126 51.2649 46.5484 49.0152 45.5843 46.7652C44.9618 45.3129 44.2256 43.87 43.7042 42.3787C43.4362 41.6123 43.0034 40.9883 43.1617 41.059C41.2252 40.1963 36.9487 41.059 34.8413 41.059V41.0588Z" fill="#B49164"/>
</svg>
