<svg width="30" height="30" viewBox="0 0 30 30" fill="none" xmlns="http://www.w3.org/2000/svg">
<path d="M2 3.33333V30M28.6667 3.33333V30M19.3333 2C23.375 2 24.776 6 28.6667 6V26L19.3333 23.3333V2ZM11.3333 2C7.29167 2 5.89063 6 2 6V26L11.3333 23.3333V2Z" stroke="#B49164" stroke-width="1.75" stroke-miterlimit="10"/>
<path d="M22.6667 12.6667C22.2969 12.6667 22 13.2656 22 14C22 14.7344 22.2969 15.3333 22.6667 15.3333C23.0364 15.3333 23.3333 14.7344 23.3333 14C23.3333 13.2656 23.0364 12.6667 22.6667 12.6667ZM7.99999 12.6667C7.6302 12.6667 7.33332 13.2656 7.33332 14C7.33332 14.7344 7.6302 15.3333 7.99999 15.3333C8.36978 15.3333 8.66666 14.7344 8.66666 14C8.66666 13.2656 8.36978 12.6667 7.99999 12.6667ZM28.6667 0.666672C27.9323 0.666672 27.3333 1.26563 27.3333 2.00001C27.3333 2.73438 27.9323 3.33334 28.6667 3.33334C29.401 3.33334 30 2.73438 30 2.00001C30 1.26563 29.401 0.666672 28.6667 0.666672ZM1.99999 0.666672C1.26562 0.666672 0.666656 1.26563 0.666656 2.00001C0.666656 2.73438 1.26562 3.33334 1.99999 3.33334C2.73436 3.33334 3.33332 2.73438 3.33332 2.00001C3.33332 1.26563 2.73436 0.666672 1.99999 0.666672Z" fill="#B49164"/>
</svg>
