<svg width="60" height="61" viewBox="0 0 60 61" fill="none" xmlns="http://www.w3.org/2000/svg">
<path d="M33.6709 1.72217C24.7637 3.04075 17.5967 10.8177 17.5967 20.0926C17.5967 30.3002 25.7593 38.4629 35.9671 38.4629C41.8872 38.4629 46.417 35.9782 49.7986 31.6547L49.7449 31.574C47.5563 32.5698 45.9147 32.9195 43.3584 32.9195C33.8322 32.9195 26.1091 25.1964 26.1091 15.6704C26.1091 9.92964 29.4011 4.93339 33.7156 1.79393L33.6709 1.72217Z" stroke="#B49164" stroke-width="1.7" stroke-miterlimit="10"/>
<path d="M38.0573 47.8363C28.7285 47.8722 27.5893 47.3251 22.925 43.2796C20.7901 41.3511 18.2607 40.8757 16.2782 40.8757C14.2869 40.8847 12.8338 41.369 12.8338 41.369L1.94434 45.549L4.9672 54.0077L15.0942 50.1327L31.4374 59.1294L58.7239 47.8363M47.5384 8.89795L49.6731 13.2125L54.4273 13.9032L50.9829 17.2579L51.7991 22.0029L47.5384 19.7606L43.2866 22.0029L44.094 17.2579L40.6496 13.9032L45.4125 13.2125L47.5384 8.89795Z" stroke="#B49164" stroke-width="1.7" stroke-miterlimit="10"/>
</svg>
