<svg width="63" height="60" viewBox="0 0 63 60" fill="none" xmlns="http://www.w3.org/2000/svg">
<path d="M13.0551 44.3635H61.9439M13.0551 44.3635L20.3885 32.0402H54.6106L61.9439 44.3635M13.0551 44.3635V59.1514H61.9439V44.3635M22.8329 49.2929V59.1514M32.6106 49.2929V59.1514M42.3885 49.2929V59.1514M52.1662 49.2929V59.1514M3.27734 17.2524V59.1514H8.16624M25.2773 17.2524V27.1111M37.4996 17.2524V27.1111" stroke="#B49164" stroke-width="1.5" stroke-miterlimit="10"/>
<path d="M30.167 22.1816H32.6114V27.111H30.167V22.1816ZM8.16699 22.1816H10.6114V27.111H8.16699V22.1816ZM8.16699 32.0402H10.6114V36.9695H8.16699V32.0402Z" fill="#B49164"/>
<path d="M9.40765 4.9292C12.9502 4.9292 17.9441 8.01964 17.9441 12.3231C17.9441 16.6267 15.4997 17.2524 15.4997 17.2524H3.27745C3.27745 17.2524 0.833008 16.6267 0.833008 12.3231C0.833008 8.01964 5.85557 4.9292 9.40765 4.9292Z" stroke="#B49164" stroke-width="1.5" stroke-miterlimit="10"/>
<path d="M16.904 28.3049L17.6202 27.1112L17.9447 26.5677V17.2525H14.8892V26.0183V31.0873L16.904 28.3049ZM9.38922 0C8.71125 0 8.16699 0.548769 8.16699 1.23232C8.16699 1.91588 8.71125 2.46464 9.38922 2.46464C10.0672 2.46464 10.6114 1.91588 10.6114 1.23232C10.6114 0.548769 10.0672 0 9.38922 0Z" fill="#B49164"/>
<path d="M31.4077 4.9292C34.9502 4.9292 39.9441 8.01964 39.9441 12.3231C39.9441 16.6267 37.4997 17.2524 37.4997 17.2524H25.2774C25.2774 17.2524 22.833 16.6267 22.833 12.3231C22.833 8.01964 27.8556 4.9292 31.4077 4.9292Z" stroke="#B49164" stroke-width="1.5" stroke-miterlimit="10"/>
<path d="M31.3893 0C30.7113 0 30.167 0.548769 30.167 1.23232C30.167 1.91588 30.7113 2.46464 31.3893 2.46464C32.0672 2.46464 32.6114 1.91588 32.6114 1.23232C32.6114 0.548769 32.0672 0 31.3893 0Z" fill="#B49164"/>
</svg>
