<svg width="35" height="35" viewBox="0 0 35 35" fill="none" xmlns="http://www.w3.org/2000/svg">
<path d="M2.0405 12.6875C3.61618 7.61866 7.61862 3.61622 12.6875 2.04053" stroke="#B49164" stroke-width="1.7" stroke-miterlimit="10" stroke-linecap="round" stroke-linejoin="round"/>
<path d="M12.6875 32.9595C7.61862 31.3838 3.61618 27.3813 2.0405 22.3125" stroke="#B49164" stroke-width="1.7" stroke-miterlimit="10" stroke-linecap="round" stroke-linejoin="round"/>
<path d="M32.9594 22.3125C31.3838 27.3813 27.3813 31.3838 22.3125 32.9595" stroke="#B49164" stroke-width="1.7" stroke-miterlimit="10" stroke-linecap="round" stroke-linejoin="round"/>
<path d="M22.3125 2.04053C27.3813 3.61622 31.3838 7.61866 32.9594 12.6875" stroke="#B49164" stroke-width="1.7" stroke-miterlimit="10" stroke-linecap="round" stroke-linejoin="round"/>
<path d="M19.6875 19.6875C17.7187 21.6563 10.0625 24.9375 10.0625 24.9375C10.0625 24.9375 13.125 17.5 15.3125 15.3125C17.5 13.125 24.9375 10.0625 24.9375 10.0625C24.9375 10.0625 21.6562 17.7188 19.6875 19.6875Z" stroke="#B49164" stroke-width="1.7" stroke-miterlimit="10" stroke-linecap="round" stroke-linejoin="round"/>
<path d="M2.625 17.5C2.625 18.2246 2.03711 18.8125 1.3125 18.8125C0.58789 18.8125 0 18.2246 0 17.5C0 16.7754 0.58789 16.1875 1.3125 16.1875C2.03711 16.1875 2.625 16.7754 2.625 17.5Z" fill="#B49164"/>
<path d="M35 17.5C35 18.2246 34.4121 18.8125 33.6875 18.8125C32.9629 18.8125 32.375 18.2246 32.375 17.5C32.375 16.7754 32.9629 16.1875 33.6875 16.1875C34.4121 16.1875 35 16.7754 35 17.5Z" fill="#B49164"/>
<path d="M18.8125 17.5C18.8125 18.2246 18.2246 18.8125 17.5 18.8125C16.7754 18.8125 16.1875 18.2246 16.1875 17.5C16.1875 16.7754 16.7754 16.1875 17.5 16.1875C18.2246 16.1875 18.8125 16.7754 18.8125 17.5Z" fill="#B49164"/>
<path d="M18.8125 33.6875C18.8125 34.4121 18.2246 35 17.5 35C16.7754 35 16.1875 34.4121 16.1875 33.6875C16.1875 32.9629 16.7754 32.375 17.5 32.375C18.2246 32.375 18.8125 32.9629 18.8125 33.6875Z" fill="#B49164"/>
<path d="M18.8125 1.3125C18.8125 2.03711 18.2246 2.625 17.5 2.625C16.7754 2.625 16.1875 2.03711 16.1875 1.3125C16.1875 0.58789 16.7754 0 17.5 0C18.2246 0 18.8125 0.58789 18.8125 1.3125Z" fill="#B49164"/>
</svg>
