<svg width="9" height="14" viewBox="0 0 9 14" fill="none" xmlns="http://www.w3.org/2000/svg">
<path d="M1.72832 13.037L7.9403 7.46445C8.01403 7.39811 8.06614 7.32624 8.09661 7.24884C8.12758 7.17145 8.14307 7.08852 8.14307 7.00007C8.14307 6.91162 8.12758 6.82869 8.09661 6.75129C8.06614 6.6739 8.01403 6.60203 7.9403 6.53569L1.72832 0.946545C1.55628 0.791752 1.34122 0.714355 1.08316 0.714355C0.825094 0.714355 0.603896 0.79728 0.419564 0.96313C0.235232 1.12898 0.143066 1.32247 0.143066 1.54361C0.143066 1.76474 0.235232 1.95823 0.419564 2.12408L5.83892 7.00007L0.419564 11.8761C0.247521 12.0309 0.1615 12.2215 0.1615 12.4479C0.1615 12.6748 0.253665 12.8712 0.437997 13.037C0.622329 13.2029 0.837383 13.2858 1.08316 13.2858C1.32893 13.2858 1.54399 13.2029 1.72832 13.037Z" fill="white"/>
</svg>
