<svg width="9" height="14" viewBox="0 0 9 14" fill="none" xmlns="http://www.w3.org/2000/svg">
<path d="M7.27168 0.962992L1.0597 6.53555C0.985966 6.60189 0.933862 6.67376 0.903386 6.75116C0.872418 6.82855 0.856934 6.91148 0.856934 6.99993C0.856934 7.08838 0.872418 7.17131 0.903386 7.24871C0.933862 7.3261 0.985966 7.39797 1.0597 7.46431L7.27168 13.0535C7.44372 13.2082 7.65878 13.2856 7.91684 13.2856C8.17491 13.2856 8.3961 13.2027 8.58044 13.0369C8.76477 12.871 8.85693 12.6775 8.85693 12.4564C8.85693 12.2353 8.76477 12.0418 8.58044 11.8759L3.16108 6.99993L8.58044 2.12394C8.75248 1.96915 8.8385 1.77853 8.8385 1.55209C8.8385 1.32521 8.74634 1.12884 8.562 0.962992C8.37767 0.797142 8.16262 0.714217 7.91684 0.714217C7.67107 0.714217 7.45601 0.797142 7.27168 0.962992Z" fill="white"/>
</svg>
